<svg aria-hidden="true" style="width:0;height:0;position:absolute;overflow:hidden" xmlns="http://www.w3.org/2000/svg"><defs><symbol id="menu" viewBox="0 0 32 32"><path d="M3.429 8c0-.631.512-1.143 1.143-1.143h22.857a1.143 1.143 0 0 1 0 2.286H4.572A1.143 1.143 0 0 1 3.429 8zM3.429 16c0-.631.512-1.143 1.143-1.143h22.857a1.143 1.143 0 0 1 0 2.286H4.572A1.143 1.143 0 0 1 3.429 16zM4.571 22.857a1.143 1.143 0 0 0 0 2.286h22.857a1.143 1.143 0 0 0 0-2.286H4.571z"/></symbol><symbol id="icons8-whatsapp" viewBox="0 0 32 32"><path d="M15.994 1C7.726 1 1 7.729 1 16c0 3.1.934 6.061 2.707 8.58L1.98 29.726a.496.496 0 0 0 .117.51c.133.135.33.184.508.125l5.348-1.707A14.923 14.923 0 0 0 16.006 31C24.274 31 31 24.271 31 16S24.273 1 16.031 1.002L16.023 1h-.029zm0 1h.012C23.723 2 30 8.281 30 16s-6.277 14-13.994 14a13.89 13.89 0 0 1-7.701-2.313.519.519 0 0 0-.429-.059l-4.633 1.48 1.492-4.451a.5.5 0 0 0-.07-.455 13.85 13.85 0 0 1-2.664-8.203c0-7.719 6.277-14 13.994-14zm.61 1.975a11.74 11.74 0 0 0-3.391.385.495.495 0 0 0-.355.609c.068.268.34.428.609.357a10.847 10.847 0 0 1 6.189.201c.52.172 1.025.385 1.508.629a.502.502 0 0 0 .453-.892 11.782 11.782 0 0 0-1.645-.686 11.89 11.89 0 0 0-3.369-.603zm6.716 2.519a.494.494 0 0 0-.336.184.498.498 0 0 0 .076.703c.307.248.604.516.883.795a.493.493 0 0 0 .354.146.499.499 0 0 0 .354-.852 11.853 11.853 0 0 0-.963-.869.498.498 0 0 0-.367-.107zM11.15 8.5c-.686 0-1.297.225-1.711.648-.428.436-1.432 1.455-1.432 3.461 0 1.707 1.01 3.344 1.635 4.201l.068.096c1.885 2.73 4.219 4.773 6.574 5.748 2.086.865 3.203 1.096 3.973 1.096.332 0 .598-.043.852-.096 1.125-.244 2.525-1.078 2.904-2.146.314-.891.393-1.842.182-2.209-.148-.262-.4-.383-.721-.537l-.209-.104c-.023-.01-2.207-1.098-2.625-1.244-.594-.225-1.145-.055-1.508.459l-.164.229c-.299.422-.584.818-.805 1.059-.068.072-.217.082-.354.025l-.123-.051c-.49-.197-1.508-.609-2.768-1.73-1.012-.9-1.734-2.039-1.998-2.484-.021-.037-.027-.059-.031-.061.014-.033.08-.109.141-.18.098-.125.197-.229.295-.33.084-.092.168-.182.254-.281l.041-.045c.174-.201.311-.359.443-.646.262-.504.029-.984-.047-1.143a158.61 158.61 0 0 1-.814-1.961l-.336-.813c-.322-.77-.678-.922-1.252-.945a7.883 7.883 0 0 0-.465-.016zm0 1c.15 0 .283.008.414.016.057.002.178.006.203.018.004.002.064.047.176.311l.334.811a92.88 92.88 0 0 0 .84 2.012c.061.127.08.213.051.271-.084.176-.148.252-.303.43l-.043.047c-.074.09-.15.17-.225.248a6.97 6.97 0 0 0-.348.389c-.176.207-.588.691-.193 1.373.359.607 1.121 1.768 2.195 2.727 1.391 1.238 2.561 1.709 3.061 1.912l.111.045c.535.221 1.111.117 1.471-.266.268-.289.57-.713.889-1.16l.162-.229c.104-.146.176-.166.355-.098.281.098 1.893.885 2.516 1.197l.223.111c.104.049.227.107.271.125.02.189-.006.723-.24 1.385-.236.67-1.313 1.318-2.17 1.502-.512.109-1.287.275-4.23-.945-2.182-.902-4.359-2.818-6.137-5.393a10.732 10.732 0 0 0-.105-.152c-.531-.725-1.42-2.154-1.42-3.576 0-1.596.773-2.383 1.18-2.797.188-.193.559-.313.963-.313zm-6.369 5.953a.499.499 0 0 0-.527.469.496.496 0 0 0 .469.529l1.033.061.031.002a.497.497 0 0 0 .496-.471.497.497 0 0 0-.469-.529zm1.291 2.699a.468.468 0 0 0-.197.002l-1.016.207a.5.5 0 1 0 .203.98l1.014-.209a.503.503 0 0 0 .389-.592.497.497 0 0 0-.393-.389zm.735 2.481a.516.516 0 0 0-.191.053l-.926.465a.499.499 0 1 0 .447.894l.926-.465a.501.501 0 0 0-.255-.947zm1.541 2.183a.488.488 0 0 0-.361.127l-.775.688a.5.5 0 0 0 .666.746l.773-.688a.5.5 0 0 0-.303-.873zm2.054 1.733a.503.503 0 0 0-.51.217l-.568.865a.498.498 0 0 0 .143.691.496.496 0 0 0 .691-.143l.57-.865a.496.496 0 0 0-.327-.765z"/></symbol><symbol id="icons8-instagram" viewBox="0 0 32 32"><path d="M6.5 3C4.57 3 3 4.57 3 6.5v19C3 27.43 4.57 29 6.5 29h19c1.93 0 3.5-1.57 3.5-3.5v-19C29 4.57 27.43 3 25.5 3zm0 1h19C26.879 4 28 5.121 28 6.5v19c0 1.379-1.121 2.5-2.5 2.5h-19A2.502 2.502 0 0 1 4 25.5v-19C4 5.121 5.121 4 6.5 4zM24 6.5c-.826 0-1.5.674-1.5 1.5s.674 1.5 1.5 1.5 1.5-.674 1.5-1.5-.674-1.5-1.5-1.5zm0 .766c.404 0 .734.33.734.734s-.33.734-.734.734c-.404 0-.734-.33-.734-.734s.33-.734.734-.734zM16 9c-3.859 0-7 3.141-7 7s3.141 7 7 7 7-3.141 7-7-3.141-7-7-7zm0 1c3.309 0 6 2.691 6 6s-2.691 6-6 6-6-2.691-6-6 2.691-6 6-6zm0 1c-2.758 0-5 2.242-5 5s2.242 5 5 5 5-2.242 5-5-2.242-5-5-5zm0 1c2.205 0 4 1.795 4 4s-1.795 4-4 4-4-1.795-4-4 1.795-4 4-4zM6 24.5c-.275 0-.5.225-.5.5v1c0 .275.225.5.5.5s.5-.225.5-.5v-1c0-.275-.225-.5-.5-.5zm2.5 0c-.275 0-.5.225-.5.5v1c0 .275.225.5.5.5s.5-.225.5-.5v-1c0-.275-.225-.5-.5-.5zm2.5 0c-.275 0-.5.225-.5.5v1c0 .275.225.5.5.5s.5-.225.5-.5v-1c0-.275-.225-.5-.5-.5zm2.5 0c-.275 0-.5.225-.5.5v1c0 .275.225.5.5.5s.5-.225.5-.5v-1c0-.275-.225-.5-.5-.5zm2.5 0c-.275 0-.5.225-.5.5v1c0 .275.225.5.5.5s.5-.225.5-.5v-1c0-.275-.225-.5-.5-.5zm2.5 0c-.275 0-.5.225-.5.5v1c0 .275.225.5.5.5s.5-.225.5-.5v-1c0-.275-.225-.5-.5-.5zm2.5 0c-.275 0-.5.225-.5.5v1c0 .275.225.5.5.5s.5-.225.5-.5v-1c0-.275-.225-.5-.5-.5zm2.5 0c-.275 0-.5.225-.5.5v1c0 .275.225.5.5.5s.5-.225.5-.5v-1c0-.275-.225-.5-.5-.5zm2.5 0c-.275 0-.5.225-.5.5v1c0 .275.225.5.5.5s.5-.225.5-.5v-1c0-.275-.225-.5-.5-.5z"/></symbol><symbol id="icons8-facebook" viewBox="0 0 32 32"><path d="M26.21 5.704A14.406 14.406 0 0 0 16.003 1.5h-.063c-3.873.016-7.508 1.54-10.236 4.29S1.484 12.188 1.5 16.061a14.404 14.404 0 0 0 4.29 10.235 14.403 14.403 0 0 0 10.207 4.203h.064c3.873-.017 7.509-1.54 10.235-4.291s4.22-6.398 4.203-10.271a14.408 14.408 0 0 0-4.29-10.235zM16.057 29.5c-.65.002-1.293-.043-1.925-.131V19.313h-3.093v-3.286h3.093V13.84c0-3.62 1.764-5.209 4.772-5.209 1.441 0 2.203.107 2.564.155v2.868h-2.052c-1.277 0-1.723 1.211-1.723 2.576v1.796h3.743l-.508 3.286h-3.235v10.079a13.63 13.63 0 0 1-1.635.108zm9.53-3.994a13.403 13.403 0 0 1-6.895 3.727v-8.919h2.235a1 1 0 0 0 .988-.847l.5-3.234a.999.999 0 0 0-.977-1.204h-2.745v-.796c0-.588.094-1.576.723-1.576h2.052a1 1 0 0 0 1-1V8.789a1 1 0 0 0-.866-.991c-.41-.056-1.218-.165-2.697-.165-3.722 0-5.772 2.205-5.772 6.209v1.187H11.04a1 1 0 0 0-1 1v3.286a1 1 0 0 0 1 1h2.093v8.878a13.411 13.411 0 0 1-6.637-3.604c-2.562-2.54-3.98-5.924-3.995-9.53s1.375-7.002 3.913-9.563a13.409 13.409 0 0 1 9.53-3.994h.059c3.584 0 6.957 1.389 9.503 3.914 2.561 2.539 3.979 5.924 3.994 9.53s-1.375 7.002-3.913 9.563zm.83-3.549-.001.002a.5.5 0 0 1-.681.184l-.868-.496a.5.5 0 0 1 .497-.868l.868.496a.501.501 0 0 1 .186.683zm1.112-2.718a.499.499 0 0 1-.61.356l-.967-.255a.5.5 0 1 1 .255-.967l.966.255a.5.5 0 0 1 .356.611zm-5.032 6.17a.5.5 0 0 1-.865.503l-.503-.864a.5.5 0 0 1 .864-.503l.503.863zm5.404-9.083a.5.5 0 0 1-.498.502l-1 .004a.5.5 0 1 1-.004-.999l1-.004a.5.5 0 0 1 .502.497zm-3.265 7.262a.5.5 0 1 1-.704.71l-.71-.704a.5.5 0 0 1 .704-.71l.709.704zM13.58 4.806a.5.5 0 0 1-.369.603c-.372.09-.741.2-1.098.329a.5.5 0 0 1-.34-.941c.392-.141.796-.263 1.203-.36a.5.5 0 0 1 .604.369zm-3.17 1.141c.143.236.07.54-.169.687a10.542 10.542 0 0 0-4.434 5.392.498.498 0 0 1-.639.299.5.5 0 0 1-.3-.641 11.548 11.548 0 0 1 4.855-5.907.5.5 0 0 1 .687.169z"/></symbol><symbol id="icon-arrow-right" viewBox="0 0 32 32"><path d="M31 16 16 1v9H0v12h16v9z"/></symbol><symbol id="icon-cat_black" viewBox="0 0 30 32"><path fill="#68b738" style="fill:var(--color1,#68b738)" d="M30.189 16.906C30.189 25.242 23.431 32 15.095 32S.001 25.242.001 16.906c0-8.336 6.758-15.094 15.094-15.094S30.189 8.57 30.189 16.906z"/><path style="fill:var(--color2,#000)" d="M21.255 0h-.118a1.087 1.087 0 0 0-.453.495 4.857 4.857 0 0 0-.401 1.061.502.502 0 0 1-.46.417 2.278 2.278 0 0 0-1.624 1.177 8.505 8.505 0 0 0-.575 1.245c-.441 1.145-.779 2.328-1.195 3.483-.196.526-.205.526-.795.526-.705 0-.655-.109-.665.669 0 .246.075.37.335.358.081 0 .202-.04.233.065s-.075.152-.137.215a2.784 2.784 0 0 1-1.344.759c-.59.159-1.192.283-1.767.476-1.475.495-2.838 1.186-3.9 2.356a8.726 8.726 0 0 0-1.472 2.44c-1.14 2.689-1.692 5.521-2.121 8.381a58.057 58.057 0 0 0-.453 4.046c-.056.666-.118 1.341-.118 2.02h10.349a.685.685 0 0 0-.071-.398 1.554 1.554 0 0 0-1.19-.955c-.217-.05-.242-.115-.109-.286a3.22 3.22 0 0 0 .494-.965c.506-1.497.702-3.059.947-4.606a9.365 9.365 0 0 1 1.068-3.371 6.719 6.719 0 0 1 1.736-1.983c.258-.196.267-.196.311.137.031.221.037.448.053.672.093 1.47.075 2.946-.056 4.413a19.28 19.28 0 0 0-.047 3.423 23.34 23.34 0 0 0 .705 3.918h4.13a1.687 1.687 0 0 0-1.317-1.382 2.792 2.792 0 0 0-1.168.062c-.186.044-.264 0-.279-.202a17.578 17.578 0 0 1 .311-4.924c.414-1.868.731-3.757.95-5.658.081-.768.323-1.51.708-2.179.369-.66.692-1.344 1.056-2.007a1.838 1.838 0 0 0 .131-1.615c-.084-.221-.165-.445-.267-.657-.311-.607-.621-1.208-.907-1.821-.152-.311-.118-.349.22-.358.506 0 .506 0 .515-.51v-.205c0-.215-.081-.333-.311-.311h-.472c-.214 0-.276-.09-.224-.311a1.935 1.935 0 0 1 1.593-1.379 6.797 6.797 0 0 1 2.056.134.31.31 0 0 0 .388-.199c.124-.311.261-.622.401-.934a.316.316 0 0 0-.031-.355c-.994-1.264-2.071-2.443-3.54-3.199a.459.459 0 0 1-.273-.348 6.109 6.109 0 0 0-.394-1.295A1.09 1.09 0 0 0 21.253 0z"/></symbol><symbol id="icon-cat_back" viewBox="0 0 43 32"><path fill="#68b738" style="fill:var(--color1,#68b738)" d="M38.08 16c0 8.837-7.163 16-16 16s-16-7.163-16-16 7.163-16 16-16 16 7.163 16 16z"/><path style="fill:var(--color2,#000)" d="M39.392 8.896c.369-.588.86-1.09 1.44-1.472.32-.224.512-.224.704.192.256.608.48 1.248.288 1.92a.724.724 0 0 0 .128.672c.192.256.352.512.512.736a2.007 2.007 0 0 1 .288 1.984 1.74 1.74 0 0 0-.064.992c.064.317.064.643 0 .96a1.204 1.204 0 0 1-.864 1.024 1.667 1.667 0 0 0-1.024.64.34.34 0 0 1-.288.16c-.384.064-1.344-.8-1.344-1.184v-.192c.032-1.152-.032-1.248-1.088-1.728a1.406 1.406 0 0 1-.576-.384c-.192-.256-.448-.224-.736-.128s-.448.288-.416.608c.096.775.129 1.556.096 2.336a.602.602 0 0 0 .064.256c.992 1.44 1.376 3.136 1.856 4.768.384 1.248 1.088 1.92 2.368 2.016.205.016.408.048.608.096a1.326 1.326 0 0 1 1.088 1.024c.224.672.096.832-.576.832h-2.08a1.035 1.035 0 0 1-.736-.256 3.753 3.753 0 0 0-1.088-.64 2.329 2.329 0 0 1-1.088-.832 9.172 9.172 0 0 0-1.28-1.44c-.896-.928-1.856-1.824-2.688-2.784a3.642 3.642 0 0 1-1.024-2.432c0-.288-.064-.416-.384-.288a.617.617 0 0 1-.32.096c-.896 0-1.344.544-1.664 1.344-.288.672-.672 1.312-1.024 1.984-.2.421-.309.879-.32 1.344 0 .768.192 1.024.896 1.28.448.16.864.32 1.088.768.256.512.192.64-.352.672h-2.176a.607.607 0 0 1-.608-.352l-.576-.96c-.17-.25-.279-.537-.317-.837s-.007-.605.093-.891a3.794 3.794 0 0 0 .032-1.696 2.69 2.69 0 0 1 .544-2.24c.192-.224.192-.32-.128-.384a16.027 16.027 0 0 1-3.776-1.312c-.009 0-.017-.003-.023-.009s-.009-.014-.009-.023c-1.024-.384-1.216-.32-1.504.736-.256.896-.512 1.792-.704 2.72-.224 1.024.032 1.984.352 2.944.128.384.512.352.8.448.64.192 1.184.448 1.44 1.12.224.512.192.576-.352.576s-1.088-.032-1.664 0a2.123 2.123 0 0 1-1.344-.448c-1.536-1.024-1.984-2.592-2.112-4.288-.064-1.056-.64-1.888-1.312-2.688-.128-.16-.256-.224-.448-.096-.687.379-1.404.7-2.144.96a8.55 8.55 0 0 0-3.904 2.816 3.403 3.403 0 0 0-.704 1.632c-.096.576.064.832.64.992s.864.48.928 1.088c.032.256-.064.384-.32.384H7.904a.519.519 0 0 1-.416-.256 2.74 2.74 0 0 1-.608-1.76c-.017-1.106.08-2.21.288-3.296a2.018 2.018 0 0 1 1.088-1.536c1.888-.896 2.88-2.592 3.776-4.352.192-.352.032-.416-.288-.384a5.266 5.266 0 0 0-2.464 1.024 22.555 22.555 0 0 0-2.656 2.272 5.334 5.334 0 0 1-3.296 1.568C.992 17.44-.096 16.128 0 14.016a3.1 3.1 0 0 1 .768-1.952 1.362 1.362 0 0 1 1.44-.48c.48.128.608.384.416.864-.096.192-.224.352-.32.544a2.399 2.399 0 0 0-.32.64c-.352.96.128 1.632 1.12 1.728 1.056.096 1.92-.352 2.72-.992a14.376 14.376 0 0 0 2.56-2.656 6.644 6.644 0 0 1 4.608-2.592c.736-.096 1.376-.416 2.08-.608a13.29 13.29 0 0 1 4.064-.576 4.155 4.155 0 0 0 1.856-.352c1.568-.64 3.2-.64 4.832-.32 1.28.256 2.56.576 3.808.896a5.305 5.305 0 0 0 2.24-.064 21.718 21.718 0 0 1 4.288-.64A5.817 5.817 0 0 1 38.912 8c.64.288.64.288.48.896z"/></symbol><symbol id="alarm" viewBox="0 0 32 32"><path fill="#F2F2F2" d="M28.992 15.756a12.89 12.89 0 0 0-1.755-6.524 4.875 4.875 0 0 0 2.68-4.355A4.884 4.884 0 0 0 25.04-.001a4.885 4.885 0 0 0-4.682 3.514 12.887 12.887 0 0 0-4.359-.75c-1.53 0-3 .267-4.364.755A4.884 4.884 0 0 0 6.959.024a4.883 4.883 0 0 0-4.877 4.877 4.874 4.874 0 0 0 2.674 4.351 12.913 12.913 0 0 0-1.748 6.503c0 4.909 2.737 9.191 6.765 11.4l-2.949 3.606 1.514 1.238 3.282-4.013c1.369.492 2.844.761 4.38.761s3.011-.269 4.38-.761l3.282 4.013 1.514-1.238-2.949-3.606c4.028-2.209 6.765-6.491 6.765-11.4zm-3.951-13.8a2.925 2.925 0 0 1 2.921 2.922 2.92 2.92 0 0 1-1.845 2.717 13.084 13.084 0 0 0-3.944-3.277 2.926 2.926 0 0 1 2.868-2.361zM4.038 4.902A2.925 2.925 0 0 1 6.959 1.98a2.927 2.927 0 0 1 2.865 2.347 13.1 13.1 0 0 0-3.944 3.29 2.919 2.919 0 0 1-1.843-2.716zm13.007 21.84v-1.92h-1.956v1.932c-5.352-.439-9.634-4.713-10.086-10.062h1.956v-1.956H5.011c.179-1.942.863-3.74 1.919-5.262l.119-.164a11.1 11.1 0 0 1 4.228-3.512l.536-.254a10.95 10.95 0 0 1 3.276-.788v1.849h1.956V4.767c1.275.119 2.505.455 3.669 1.006a11.1 11.1 0 0 1 4.228 3.512 10.932 10.932 0 0 1 2.048 5.45h-1.815v1.956h1.821c-.448 5.304-4.662 9.551-9.951 10.05z"/><path fill="#F2F2F2" d="M15.022 8.314v7.317l-2.639 4.262 1.663 1.03 2.931-4.735V8.315z"/></symbol><symbol id="boiling-water" viewBox="0 0 32 32"><path fill="#F2F2F2" d="M31.558 5.144a1.504 1.504 0 0 0-2.131 0l-2.758 2.758a1.51 1.51 0 0 0-.44 1.066V25.47H6.175V9.027c0-.399-.159-.783-.44-1.066L2.574 4.8A1.507 1.507 0 1 0 .442 6.931l2.719 2.72v17.326c0 .836.675 1.509 1.507 1.509h23.068c.832 0 1.509-.671 1.509-1.509V9.592l2.316-2.318c.59-.588.59-1.541 0-2.131z"/><path fill="#F2F2F2" d="M15.513 13.197c1.189 1.229 2.805 2.433 4.747 2.429 1.943.006 3.511-1.314 4.308-2.785-1.183 1.206-2.768 2.008-4.269 1.845-1.509-.166-2.815-1.159-3.927-2.331-.626-.626-1.323-1.208-2.136-1.641-.811-.42-1.743-.707-2.684-.658-1.921.064-3.473 1.337-4.32 2.787 1.219-1.172 2.796-1.955 4.308-1.849 1.52.11 2.866 1.053 3.972 2.202zM15.806 5.322a1.529 1.529 0 1 1-3.058 0 1.529 1.529 0 0 1 3.058 0zM18.973 7.157a.63.63 0 1 1-1.26 0 .63.63 0 0 1 1.26 0zM21.398 4.142a.628.628 0 1 1-1.256 0 .628.628 0 0 1 1.256 0zM19.292 20.525a1.477 1.477 0 1 0 2.954.002 1.477 1.477 0 0 0-2.954-.002zm2.356 0c0 .486-.395.879-.877.879s-.877-.393-.877-.879c0-.482.395-.875.877-.875s.877.393.877.875zM9.498 17.81a2.24 2.24 0 0 0 2.233 2.236 2.24 2.24 0 0 0 2.233-2.236c0-1.227-1.002-2.233-2.233-2.233s-2.233 1.006-2.233 2.233zm3.862 0a1.63 1.63 0 0 1-1.628 1.631c-.9 0-1.631-.732-1.631-1.631a1.63 1.63 0 0 1 3.259 0z"/></symbol><symbol id="fork-plate-knife" viewBox="0 0 32 32"><path fill="#F2F2F2" d="M30.02 27.763c-.664 0-1.204-.54-1.204-1.204V5.142c0-.313.252-.905 1.204-.905 1.511 0 1.98 5.365 1.98 7.319 0 3.031-.67 5.815-.776 6.235v8.767c0 .664-.54 1.204-1.204 1.204zm-.403-9.621v8.417a.402.402 0 0 0 .804 0v-8.417h-.804zm0-.802h.889c.19-.827.691-3.247.691-5.784 0-3.347-.787-6.23-1.21-6.517-.247.005-.356.074-.371.124V17.34zM2.666 27.763c-.3 0-.588-.118-.792-.323a.969.969 0 0 1-.286-.692l.129-13.112a2.686 2.686 0 0 1-1.718-2.437v-.03l.275-6.045a.406.406 0 0 1 .418-.382.4.4 0 0 1 .382.419l-.256 5.626h.699l.129-5.653a.402.402 0 0 1 .802.018l-.128 5.635h.69l-.128-5.635a.401.401 0 1 1 .802-.018l.129 5.653h.699l-.256-5.626a.401.401 0 0 1 .8-.037l.275 6.044v.03a2.685 2.685 0 0 1-1.718 2.437l.129 13.112a.962.962 0 0 1-.286.692 1.12 1.12 0 0 1-.792.323zm-.148-13.951-.127 12.943c0 .054.029.095.054.12.107.109.337.108.444 0a.174.174 0 0 0 .054-.12l-.128-12.943h-.297zM.855 11.587c.201.814.942 1.423 1.811 1.423s1.61-.609 1.811-1.423H.855zm15.623 14.586c-5.882 0-10.668-4.786-10.668-10.668S10.596 4.837 16.478 4.837c5.883 0 10.668 4.786 10.668 10.668S22.36 26.173 16.478 26.173zm0-20.535c-5.441 0-9.867 4.426-9.867 9.867s4.426 9.867 9.867 9.867 9.867-4.426 9.867-9.867-4.426-9.867-9.867-9.867zm0 17.633c-4.282 0-7.766-3.484-7.766-7.766s3.484-7.766 7.766-7.766 7.766 3.484 7.766 7.766-3.484 7.766-7.766 7.766zm0-14.731c-3.84 0-6.964 3.124-6.964 6.964s3.124 6.964 6.964 6.964 6.964-3.124 6.964-6.964-3.124-6.964-6.964-6.964z"/></symbol><symbol id="leaf" viewBox="0 0 32 32"><path fill="#F2F2F2" d="M26.057 17.785c0-5.189-1.698-16.751-1.77-17.241a.637.637 0 0 0-.853-.505c-.177.066-4.392 1.647-8.677 4.595-2.535 1.744-4.559 3.604-6.017 5.529-1.856 2.451-2.797 5.016-2.797 7.622 0 4.874 3.486 8.949 8.095 9.864.224 1.421.533 2.735.921 3.912a.638.638 0 0 0 1.211-.399 23.345 23.345 0 0 1-.811-3.342c.212.013.426.021.642.021 5.545 0 10.057-4.511 10.057-10.057zm-18.839 0c0-5.297 4.482-9.496 8.241-12.086 2.466-1.699 4.955-2.948 6.58-3.686-1.349 1.947-3.993 6.015-5.57 10.083a.639.639 0 0 0 .594.868.636.636 0 0 0 .594-.407c1.585-4.09 4.372-8.3 5.615-10.08.484 3.506 1.509 11.395 1.509 15.308 0 4.842-3.94 8.782-8.782 8.782s-8.782-3.939-8.782-8.782z"/><path fill="#F2F2F2" d="M16.175 15.082a.638.638 0 0 0-.746.507 11.322 11.322 0 0 0-.212 1.945.638.638 0 0 0 .628.647h.01a.637.637 0 0 0 .637-.628 10.09 10.09 0 0 1 .19-1.726.638.638 0 0 0-.507-.746z"/></symbol><symbol id="logo-mobile" viewBox="0 0 29 32"><path fill="#fdc305" style="fill:var(--color1,#fdc305)" d="M5.112 17.448v-1.903a120.613 120.613 0 0 1 16.985-1.12c0 .505 0 1.019-.051 1.533a21.511 21.511 0 0 1 5.053-1.533A14.037 14.037 0 0 0 .16 17.17l4.952.278zM22.939 20.404c-.977 1.078-1.171 1.011-1.171 2.905v7.731a14.01 14.01 0 0 0 6.29-11.672 14.582 14.582 0 0 0-.269-2.611 27.892 27.892 0 0 0-4.851 3.646zM5.356 21.659S2.164 20.446.985 20.118A7.24 7.24 0 0 0 0 19.882a14.015 14.015 0 0 0 7.31 11.789L5.356 21.658z"/><path fill="#f06351" style="fill:var(--color2,#f06351)" d="M22.139 14.417c.034-4.65-.36-9.292-1.179-13.869 0 0-.118-1.086-.749-.202A12.012 12.012 0 0 0 19.2 3.664a59.269 59.269 0 0 0-10.754.286C7.781 1.685 6.61.632 6.046.843S5.44 3.63 5.44 3.63l-.278 11.874a120.629 120.629 0 0 1 16.977-1.086z"/><path style="fill:var(--color3,#000)" d="M10.451 11.789c0-.076.842.573 1.187.775s.514.354.514.497c0 .143-.227.286-.531.286s-.766-.101-.842-.227h1.036a6.992 6.992 0 0 1-1.364-1.331zM16.749 11.882l-.918 1.12c0 .051-.143.295.152.253a6.236 6.236 0 0 0 1.027-.244c.093 0 .059-.16-.093-.143s-.581.042-.842.093l.707-1.061s.059-.109-.034-.017zM14.105 17.011a1.94 1.94 0 0 0 .918-.842c.236-.547 0-.766-.371-.842a2.05 2.05 0 0 0-1.465.286c-.328.303-.286.606-.042.842.296.224.618.411.96.556z"/><path fill="#f06351" style="fill:var(--color2,#f06351)" d="M13.768 18.063a1.618 1.618 0 0 1-.387.505c-.24.193-.535.305-.842.32a1.815 1.815 0 0 1-1.238-.362 1.891 1.891 0 0 1-.446-.371.912.912 0 0 0-.303-.219s.632 3.453 2.164 4 1.802-.632 1.853-.952a4.717 4.717 0 0 0-.691-2.72c-.017-.261-.025-.093-.109-.202z"/><path style="fill:var(--color3,#000)" d="M12.387 19.023a2.898 2.898 0 0 1-1.988-1.235.122.122 0 0 1 .026-.131.116.116 0 0 1 .085-.035.122.122 0 0 1 .085.035 2.746 2.746 0 0 0 1.777 1.095 1.75 1.75 0 0 0 1.372-.842l.118-.16.084.177s.312.64.842.674.884-.345 1.356-1.078a.116.116 0 0 1 .085-.035.122.122 0 0 1 .085.035c.027.017.047.045.055.076s.003.064-.012.093c-.539.842-1.069 1.213-1.583 1.179a1.298 1.298 0 0 1-.943-.64 1.91 1.91 0 0 1-1.44.791z"/><path fill="#f06351" style="fill:var(--color2,#f06351)" d="M22.097 15.933a49.2 49.2 0 0 0-4.269 4.371 26.637 26.637 0 0 1-4.455 4.118c-.185-.446-1.364-1.272-1.364-1.272s-2.636-1.802-4.362-3.217a28.713 28.713 0 0 1-2.636-2.526l-1.684-.093a19.012 19.012 0 0 0 10.105 7.411c.724-.118 2.754-1.566 4.269-2.745a49 49 0 0 0 5.002-4.96 5.177 5.177 0 0 0 .96-1.684c-.926.328-1.566.598-1.566.598z"/></symbol><symbol id="menu" viewBox="0 0 32 32" fill="#f06351"><path d="M2 6h28v6H2zm0 8h28v6H2zm0 8h28v6H2z"/></symbol></defs></svg>