<svg
  aria-hidden="true"
  style="position: absolute; width: 0; height: 0; overflow: hidden;"
  version="1.1"
  xmlns="http://www.w3.org/2000/svg"
  xmlns:xlink="http://www.w3.org/1999/xlink"
>
<defs>
<symbol id="menu" viewBox="0 0 32 32">
<path
        d="M3.429 8c0-0.631 0.512-1.143 1.143-1.143h22.857c0.631 0 1.143 0.512 1.143 1.143s-0.512 1.143-1.143 1.143h-22.857c-0.631 0-1.143-0.512-1.143-1.143z"
      />
<path
        d="M3.429 16c0-0.631 0.512-1.143 1.143-1.143h22.857c0.631 0 1.143 0.512 1.143 1.143s-0.512 1.143-1.143 1.143h-22.857c-0.631 0-1.143-0.512-1.143-1.143z"
      />
<path
        d="M4.571 22.857c-0.631 0-1.143 0.512-1.143 1.143s0.512 1.143 1.143 1.143h22.857c0.631 0 1.143-0.512 1.143-1.143s-0.512-1.143-1.143-1.143h-22.857z"
      />
</symbol>
<symbol id="icons8-whatsapp" viewBox="0 0 32 32">
<path
        d="M15.994 1c-8.268 0-14.994 6.729-14.994 15 0 3.1 0.934 6.061 2.707 8.58l-1.727 5.146c-0.061 0.178-0.016 0.377 0.117 0.51 0.133 0.135 0.33 0.184 0.508 0.125l5.348-1.707c2.404 1.535 5.184 2.346 8.053 2.346 8.268 0 14.994-6.729 14.994-15s-6.727-15-14.969-14.998l-0.008-0.002c-0.010 0-0.020 0-0.029 0zM15.994 2h0.012c7.717 0 13.994 6.281 13.994 14s-6.277 14-13.994 14c-2.754 0-5.418-0.799-7.701-2.313-0.084-0.053-0.18-0.082-0.275-0.082-0.053 0-0.104 0.008-0.154 0.023l-4.633 1.48 1.492-4.451c0.053-0.154 0.025-0.324-0.070-0.455-1.742-2.393-2.664-5.23-2.664-8.203 0-7.719 6.277-14 13.994-14zM16.604 3.975c-1.137-0.037-2.277 0.090-3.391 0.385-0.268 0.068-0.426 0.342-0.355 0.609 0.068 0.268 0.34 0.428 0.609 0.357 2.039-0.535 4.18-0.467 6.189 0.201 0.52 0.172 1.025 0.385 1.508 0.629 0.074 0.037 0.152 0.055 0.227 0.055 0.184 0 0.359-0.102 0.447-0.275 0.125-0.246 0.027-0.547-0.221-0.672-0.525-0.268-1.078-0.498-1.645-0.686-1.098-0.365-2.23-0.566-3.369-0.603zM23.32 6.494c-0.129 0.014-0.25 0.076-0.336 0.184-0.174 0.215-0.141 0.529 0.076 0.703 0.307 0.248 0.604 0.516 0.883 0.795 0.096 0.098 0.225 0.146 0.354 0.146 0.127 0 0.256-0.047 0.352-0.145 0.197-0.195 0.197-0.512 0.002-0.707-0.303-0.305-0.627-0.598-0.963-0.869-0.107-0.086-0.24-0.121-0.367-0.107zM11.15 8.5c-0.686 0-1.297 0.225-1.711 0.648-0.428 0.436-1.432 1.455-1.432 3.461 0 1.707 1.010 3.344 1.635 4.201l0.068 0.096c1.885 2.73 4.219 4.773 6.574 5.748 2.086 0.865 3.203 1.096 3.973 1.096 0.332 0 0.598-0.043 0.852-0.096 1.125-0.244 2.525-1.078 2.904-2.146 0.314-0.891 0.393-1.842 0.182-2.209-0.148-0.262-0.4-0.383-0.721-0.537l-0.209-0.104c-0.023-0.010-2.207-1.098-2.625-1.244-0.594-0.225-1.145-0.055-1.508 0.459l-0.164 0.229c-0.299 0.422-0.584 0.818-0.805 1.059-0.068 0.072-0.217 0.082-0.354 0.025l-0.123-0.051c-0.49-0.197-1.508-0.609-2.768-1.73-1.012-0.9-1.734-2.039-1.998-2.484-0.021-0.037-0.027-0.059-0.031-0.061 0.014-0.033 0.080-0.109 0.141-0.18 0.098-0.125 0.197-0.229 0.295-0.33 0.084-0.092 0.168-0.182 0.254-0.281l0.041-0.045c0.174-0.201 0.311-0.359 0.443-0.646 0.262-0.504 0.029-0.984-0.047-1.143-0.059-0.127-0.514-1.23-0.814-1.961l-0.336-0.813c-0.322-0.77-0.678-0.922-1.252-0.945-0.139-0.008-0.293-0.016-0.465-0.016zM11.15 9.5c0.15 0 0.283 0.008 0.414 0.016 0.057 0.002 0.178 0.006 0.203 0.018 0.004 0.002 0.064 0.047 0.176 0.311l0.334 0.811c0.449 1.090 0.771 1.871 0.84 2.012 0.061 0.127 0.080 0.213 0.051 0.271-0.084 0.176-0.148 0.252-0.303 0.43l-0.043 0.047c-0.074 0.090-0.15 0.17-0.225 0.248-0.115 0.121-0.229 0.244-0.348 0.389-0.176 0.207-0.588 0.691-0.193 1.373 0.359 0.607 1.121 1.768 2.195 2.727 1.391 1.238 2.561 1.709 3.061 1.912l0.111 0.045c0.535 0.221 1.111 0.117 1.471-0.266 0.268-0.289 0.57-0.713 0.889-1.16l0.162-0.229c0.104-0.146 0.176-0.166 0.355-0.098 0.281 0.098 1.893 0.885 2.516 1.197l0.223 0.111c0.104 0.049 0.227 0.107 0.271 0.125 0.020 0.189-0.006 0.723-0.24 1.385-0.236 0.67-1.313 1.318-2.17 1.502-0.512 0.109-1.287 0.275-4.23-0.945-2.182-0.902-4.359-2.818-6.137-5.393-0.045-0.066-0.076-0.111-0.105-0.152-0.531-0.725-1.42-2.154-1.42-3.576 0-1.596 0.773-2.383 1.18-2.797 0.188-0.193 0.559-0.313 0.963-0.313zM4.781 15.453c-0.275-0.016-0.512 0.195-0.527 0.469-0.018 0.277 0.191 0.514 0.469 0.529l1.033 0.061c0.010 0 0.020 0.002 0.031 0.002 0.262 0 0.482-0.205 0.496-0.471 0.018-0.275-0.191-0.514-0.469-0.529zM6.072 18.152c-0.063-0.012-0.131-0.014-0.197 0.002l-1.016 0.207c-0.27 0.055-0.445 0.32-0.389 0.592 0.049 0.236 0.258 0.398 0.49 0.398 0.033 0 0.066-0.004 0.102-0.010l1.014-0.209c0.27-0.057 0.443-0.32 0.389-0.592-0.041-0.203-0.201-0.352-0.393-0.389zM6.807 20.633c-0.064 0.006-0.129 0.021-0.191 0.053l-0.926 0.465c-0.246 0.123-0.348 0.424-0.223 0.67 0.086 0.176 0.264 0.277 0.447 0.277 0.074 0 0.15-0.018 0.223-0.053l0.926-0.465c0.248-0.123 0.348-0.424 0.225-0.672-0.094-0.184-0.285-0.287-0.48-0.275zM8.348 22.816c-0.127-0.008-0.258 0.033-0.361 0.127l-0.775 0.688c-0.205 0.182-0.223 0.498-0.039 0.705 0.098 0.111 0.234 0.168 0.373 0.168 0.117 0 0.236-0.041 0.332-0.127l0.773-0.688c0.207-0.184 0.225-0.5 0.043-0.705-0.092-0.104-0.219-0.16-0.346-0.168zM10.402 24.549c-0.191-0.035-0.395 0.043-0.51 0.217l-0.568 0.865c-0.152 0.23-0.088 0.539 0.143 0.691 0.084 0.055 0.18 0.084 0.275 0.084 0.162 0 0.32-0.080 0.416-0.227l0.57-0.865c0.152-0.23 0.090-0.539-0.143-0.691-0.057-0.037-0.119-0.063-0.184-0.074z"
      />
</symbol>
<symbol id="icons8-instagram" viewBox="0 0 32 32">
<path
        d="M6.5 3c-1.93 0-3.5 1.57-3.5 3.5v19c0 1.93 1.57 3.5 3.5 3.5h19c1.93 0 3.5-1.57 3.5-3.5v-19c0-1.93-1.57-3.5-3.5-3.5zM6.5 4h19c1.379 0 2.5 1.121 2.5 2.5v19c0 1.379-1.121 2.5-2.5 2.5h-19c-1.379 0-2.5-1.121-2.5-2.5v-19c0-1.379 1.121-2.5 2.5-2.5zM24 6.5c-0.826 0-1.5 0.674-1.5 1.5s0.674 1.5 1.5 1.5c0.826 0 1.5-0.674 1.5-1.5s-0.674-1.5-1.5-1.5zM24 7.266c0.404 0 0.734 0.33 0.734 0.734s-0.33 0.734-0.734 0.734c-0.404 0-0.734-0.33-0.734-0.734s0.33-0.734 0.734-0.734zM16 9c-3.859 0-7 3.141-7 7s3.141 7 7 7c3.859 0 7-3.141 7-7s-3.141-7-7-7zM16 10c3.309 0 6 2.691 6 6s-2.691 6-6 6c-3.309 0-6-2.691-6-6s2.691-6 6-6zM16 11c-2.758 0-5 2.242-5 5s2.242 5 5 5c2.758 0 5-2.242 5-5s-2.242-5-5-5zM16 12c2.205 0 4 1.795 4 4s-1.795 4-4 4c-2.205 0-4-1.795-4-4s1.795-4 4-4zM6 24.5c-0.275 0-0.5 0.225-0.5 0.5v1c0 0.275 0.225 0.5 0.5 0.5s0.5-0.225 0.5-0.5v-1c0-0.275-0.225-0.5-0.5-0.5zM8.5 24.5c-0.275 0-0.5 0.225-0.5 0.5v1c0 0.275 0.225 0.5 0.5 0.5s0.5-0.225 0.5-0.5v-1c0-0.275-0.225-0.5-0.5-0.5zM11 24.5c-0.275 0-0.5 0.225-0.5 0.5v1c0 0.275 0.225 0.5 0.5 0.5s0.5-0.225 0.5-0.5v-1c0-0.275-0.225-0.5-0.5-0.5zM13.5 24.5c-0.275 0-0.5 0.225-0.5 0.5v1c0 0.275 0.225 0.5 0.5 0.5s0.5-0.225 0.5-0.5v-1c0-0.275-0.225-0.5-0.5-0.5zM16 24.5c-0.275 0-0.5 0.225-0.5 0.5v1c0 0.275 0.225 0.5 0.5 0.5s0.5-0.225 0.5-0.5v-1c0-0.275-0.225-0.5-0.5-0.5zM18.5 24.5c-0.275 0-0.5 0.225-0.5 0.5v1c0 0.275 0.225 0.5 0.5 0.5s0.5-0.225 0.5-0.5v-1c0-0.275-0.225-0.5-0.5-0.5zM21 24.5c-0.275 0-0.5 0.225-0.5 0.5v1c0 0.275 0.225 0.5 0.5 0.5s0.5-0.225 0.5-0.5v-1c0-0.275-0.225-0.5-0.5-0.5zM23.5 24.5c-0.275 0-0.5 0.225-0.5 0.5v1c0 0.275 0.225 0.5 0.5 0.5s0.5-0.225 0.5-0.5v-1c0-0.275-0.225-0.5-0.5-0.5zM26 24.5c-0.275 0-0.5 0.225-0.5 0.5v1c0 0.275 0.225 0.5 0.5 0.5s0.5-0.225 0.5-0.5v-1c0-0.275-0.225-0.5-0.5-0.5z"
      />
</symbol>
<symbol id="icons8-facebook" viewBox="0 0 32 32">
<path
        d="M26.21 5.704c-2.736-2.712-6.358-4.204-10.207-4.204-0.021 0-0.043 0-0.063 0-3.873 0.016-7.508 1.54-10.236 4.29s-4.22 6.398-4.204 10.271c0.016 3.873 1.54 7.508 4.29 10.235 2.735 2.712 6.358 4.203 10.207 4.203 0.021 0 0.043 0 0.064 0 3.873-0.017 7.509-1.54 10.235-4.291s4.22-6.398 4.203-10.271c-0.017-3.873-1.54-7.508-4.29-10.235zM16.057 29.5c-0.65 0.002-1.293-0.043-1.925-0.131v-10.056h-3.093v-3.286h3.093v-2.187c0-3.62 1.764-5.209 4.772-5.209 1.441 0 2.203 0.107 2.564 0.155v2.868h-2.052c-1.277 0-1.723 1.211-1.723 2.576v1.796h3.743l-0.508 3.286h-3.235v10.079c-0.538 0.067-1.084 0.106-1.635 0.108zM25.587 25.506c-1.909 1.925-4.295 3.204-6.895 3.727v-8.919h2.235c0.494 0 0.913-0.36 0.988-0.847l0.5-3.234c0.014-0.066 0.021-0.134 0.021-0.204 0-0.553-0.447-1-0.998-1h-2.745v-0.796c0-0.588 0.094-1.576 0.723-1.576h2.052c0.552 0 1-0.447 1-1v-2.868c0-0.501-0.37-0.924-0.866-0.991-0.41-0.056-1.218-0.165-2.697-0.165-3.722 0-5.772 2.205-5.772 6.209v1.187h-2.093c-0.553 0-1 0.447-1 1v3.286c0 0.552 0.447 1 1 1h2.093v8.878c-2.491-0.537-4.784-1.767-6.637-3.604-2.562-2.54-3.98-5.924-3.995-9.53s1.375-7.002 3.913-9.563c2.539-2.561 5.923-3.979 9.53-3.994 0.020 0 0.040 0 0.059 0 3.584 0 6.957 1.389 9.503 3.914 2.561 2.539 3.979 5.924 3.994 9.53s-1.375 7.002-3.913 9.563zM26.417 21.957c-0 0-0.001 0.002-0.001 0.002-0.138 0.238-0.442 0.321-0.681 0.184l-0.868-0.496c-0.239-0.137-0.323-0.442-0.186-0.682 0-0.001 0.001-0.002 0.002-0.002 0.138-0.238 0.442-0.321 0.681-0.184l0.868 0.496c0.239 0.137 0.323 0.442 0.186 0.683zM27.529 19.239c-0.012 0.044-0.029 0.085-0.050 0.123-0.11 0.191-0.337 0.292-0.56 0.233l-0.967-0.255c-0.267-0.070-0.426-0.343-0.356-0.611 0.071-0.265 0.343-0.427 0.611-0.356l0.966 0.255c0.267 0.070 0.426 0.343 0.356 0.611zM22.497 25.409c0.093 0.16 0.087 0.352 0 0.502-0.042 0.073-0.104 0.136-0.181 0.181-0.239 0.139-0.545 0.058-0.684-0.18l-0.503-0.864c-0.139-0.238-0.058-0.544 0.18-0.683s0.545-0.059 0.684 0.18l0.503 0.863zM27.901 16.326c0 0.092-0.024 0.178-0.067 0.252-0.086 0.149-0.247 0.249-0.431 0.25l-1 0.004c-0.276 0.001-0.501-0.221-0.502-0.497-0.002-0.277 0.221-0.501 0.498-0.502l1-0.004c0.276-0.001 0.501 0.221 0.502 0.497zM24.636 23.588c0.165 0.163 0.192 0.413 0.081 0.605-0.021 0.037-0.048 0.071-0.078 0.102-0.195 0.196-0.511 0.198-0.707 0.003l-0.71-0.704c-0.197-0.195-0.194-0.514-0.003-0.707 0.195-0.196 0.511-0.197 0.707-0.003l0.709 0.704zM13.58 4.806c0.046 0.19-0.024 0.382-0.165 0.5-0.057 0.048-0.126 0.085-0.204 0.103-0.372 0.090-0.741 0.2-1.098 0.329-0.261 0.093-0.547-0.041-0.64-0.301s0.041-0.546 0.3-0.64c0.392-0.141 0.796-0.263 1.203-0.36 0.269-0.065 0.539 0.1 0.604 0.369zM10.41 5.947c0.143 0.236 0.070 0.54-0.169 0.687-2.046 1.24-3.621 3.155-4.434 5.392-0.031 0.085-0.082 0.157-0.147 0.211-0.133 0.111-0.319 0.152-0.492 0.088-0.26-0.094-0.394-0.381-0.3-0.641 0.89-2.45 2.614-4.548 4.855-5.907 0.236-0.143 0.544-0.067 0.687 0.169z"
      />
</symbol>
<symbol id="icon-arrow-right" viewBox="0 0 32 32">
<path d="M31 16l-15-15v9h-16v12h16v9z" />
</symbol>
<symbol id="icon-cat_black" viewBox="0 0 30 32">
<path
        fill="#68b738"
        style="fill: var(--color1, #68b738)"
        d="M30.189 16.906c0 8.336-6.758 15.094-15.094 15.094s-15.094-6.758-15.094-15.094c0-8.336 6.758-15.094 15.094-15.094s15.094 6.758 15.094 15.094z"
      />
<path
        fill="#000"
        style="fill: var(--color2, #000)"
        d="M21.255 0h-0.118c-0.199 0.113-0.358 0.286-0.453 0.495-0.175 0.337-0.309 0.693-0.401 1.061-0.020 0.111-0.075 0.212-0.159 0.287s-0.189 0.121-0.301 0.13c-0.342 0.059-0.666 0.196-0.948 0.4s-0.513 0.47-0.676 0.777c-0.225 0.399-0.417 0.815-0.575 1.245-0.441 1.145-0.779 2.328-1.195 3.483-0.196 0.526-0.205 0.526-0.795 0.526-0.705 0-0.655-0.109-0.665 0.669 0 0.246 0.075 0.37 0.335 0.358 0.081 0 0.202-0.040 0.233 0.065s-0.075 0.152-0.137 0.215c-0.368 0.375-0.834 0.638-1.344 0.759-0.59 0.159-1.192 0.283-1.767 0.476-1.475 0.495-2.838 1.186-3.9 2.356-0.621 0.727-1.118 1.551-1.472 2.44-1.14 2.689-1.692 5.521-2.121 8.381-0.202 1.341-0.345 2.689-0.453 4.046-0.056 0.666-0.118 1.341-0.118 2.020h10.349c0.017-0.137-0.008-0.276-0.071-0.398-0.1-0.248-0.261-0.467-0.47-0.634s-0.456-0.278-0.72-0.321c-0.217-0.050-0.242-0.115-0.109-0.286 0.218-0.291 0.385-0.618 0.494-0.965 0.506-1.497 0.702-3.059 0.947-4.606 0.139-1.181 0.501-2.326 1.068-3.371 0.442-0.769 1.032-1.443 1.736-1.983 0.258-0.196 0.267-0.196 0.311 0.137 0.031 0.221 0.037 0.448 0.053 0.672 0.093 1.47 0.075 2.946-0.056 4.413-0.117 1.137-0.133 2.283-0.047 3.423 0.123 1.324 0.359 2.635 0.705 3.918h4.13c-0.054-0.337-0.209-0.649-0.444-0.896s-0.539-0.416-0.873-0.486c-0.389-0.062-0.787-0.041-1.168 0.062-0.186 0.044-0.264 0-0.279-0.202-0.128-1.648-0.024-3.305 0.311-4.924 0.414-1.868 0.731-3.757 0.95-5.658 0.081-0.768 0.323-1.51 0.708-2.179 0.369-0.66 0.692-1.344 1.056-2.007 0.144-0.241 0.231-0.512 0.254-0.792s-0.020-0.562-0.123-0.823c-0.084-0.221-0.165-0.445-0.267-0.657-0.311-0.607-0.621-1.208-0.907-1.821-0.152-0.311-0.118-0.349 0.22-0.358 0.506 0 0.506 0 0.515-0.51 0-0.068 0-0.137 0-0.205 0-0.215-0.081-0.333-0.311-0.311-0.155 0-0.311 0-0.472 0-0.214 0-0.276-0.090-0.224-0.311 0.105-0.359 0.311-0.68 0.593-0.925s0.63-0.402 1-0.454c0.688-0.060 1.381-0.015 2.056 0.134 0.078 0.025 0.162 0.018 0.235-0.020s0.128-0.102 0.153-0.179c0.124-0.311 0.261-0.622 0.401-0.934 0.032-0.055 0.046-0.119 0.040-0.182s-0.030-0.124-0.071-0.173c-0.994-1.264-2.071-2.443-3.54-3.199-0.071-0.031-0.133-0.079-0.181-0.139s-0.079-0.133-0.092-0.209c-0.083-0.445-0.215-0.879-0.394-1.295-0.084-0.221-0.238-0.409-0.438-0.535v0z"
      />
</symbol>
<symbol id="icon-cat_back" viewBox="0 0 43 32">
<path
        fill="#68b738"
        style="fill: var(--color1, #68b738)"
        d="M38.080 16c0 8.837-7.163 16-16 16s-16-7.163-16-16c0-8.837 7.163-16 16-16s16 7.163 16 16z"
      />
<path
        fill="#000"
        style="fill: var(--color2, #000)"
        d="M39.392 8.896c0.369-0.588 0.86-1.090 1.44-1.472 0.32-0.224 0.512-0.224 0.704 0.192 0.256 0.608 0.48 1.248 0.288 1.92-0.035 0.114-0.042 0.235-0.019 0.352s0.073 0.227 0.147 0.32c0.192 0.256 0.352 0.512 0.512 0.736 0.218 0.276 0.359 0.605 0.41 0.953s0.009 0.704-0.122 1.031c-0.117 0.317-0.14 0.662-0.064 0.992 0.064 0.317 0.064 0.643 0 0.96-0.026 0.237-0.122 0.461-0.276 0.644s-0.359 0.315-0.588 0.38c-0.409 0.078-0.775 0.306-1.024 0.64-0.030 0.049-0.073 0.090-0.123 0.118s-0.107 0.043-0.165 0.042c-0.384 0.064-1.344-0.8-1.344-1.184v-0.192c0.032-1.152-0.032-1.248-1.088-1.728-0.221-0.078-0.419-0.21-0.576-0.384-0.192-0.256-0.448-0.224-0.736-0.128s-0.448 0.288-0.416 0.608c0.096 0.775 0.129 1.556 0.096 2.336 0.002 0.089 0.024 0.176 0.064 0.256 0.992 1.44 1.376 3.136 1.856 4.768 0.384 1.248 1.088 1.92 2.368 2.016 0.205 0.016 0.408 0.048 0.608 0.096 0.263 0.042 0.507 0.162 0.701 0.345s0.329 0.419 0.387 0.679c0.224 0.672 0.096 0.832-0.576 0.832h-2.080c-0.269 0.014-0.533-0.078-0.736-0.256-0.324-0.273-0.692-0.49-1.088-0.64-0.438-0.162-0.817-0.452-1.088-0.832-0.375-0.524-0.804-1.006-1.28-1.44-0.896-0.928-1.856-1.824-2.688-2.784-0.633-0.654-0.999-1.522-1.024-2.432 0-0.288-0.064-0.416-0.384-0.288-0.096 0.061-0.207 0.094-0.32 0.096-0.896 0-1.344 0.544-1.664 1.344-0.288 0.672-0.672 1.312-1.024 1.984-0.2 0.421-0.309 0.879-0.32 1.344 0 0.768 0.192 1.024 0.896 1.28 0.448 0.16 0.864 0.32 1.088 0.768 0.256 0.512 0.192 0.64-0.352 0.672h-2.176c-0.125 0.012-0.252-0.015-0.361-0.078s-0.196-0.159-0.247-0.274l-0.576-0.96c-0.17-0.25-0.279-0.537-0.317-0.837s-0.007-0.605 0.093-0.891c0.139-0.556 0.149-1.136 0.032-1.696-0.081-0.39-0.074-0.794 0.020-1.181s0.273-0.749 0.524-1.059c0.192-0.224 0.192-0.32-0.128-0.384-1.309-0.278-2.577-0.719-3.776-1.312-0.009 0-0.017-0.003-0.023-0.009s-0.009-0.014-0.009-0.023c-1.024-0.384-1.216-0.32-1.504 0.736-0.256 0.896-0.512 1.792-0.704 2.72-0.224 1.024 0.032 1.984 0.352 2.944 0.128 0.384 0.512 0.352 0.8 0.448 0.64 0.192 1.184 0.448 1.44 1.12 0.224 0.512 0.192 0.576-0.352 0.576s-1.088-0.032-1.664 0c-0.486 0.009-0.96-0.149-1.344-0.448-1.536-1.024-1.984-2.592-2.112-4.288-0.064-1.056-0.64-1.888-1.312-2.688-0.128-0.16-0.256-0.224-0.448-0.096-0.687 0.379-1.404 0.7-2.144 0.96-1.544 0.545-2.899 1.523-3.904 2.816-0.375 0.472-0.618 1.035-0.704 1.632-0.096 0.576 0.064 0.832 0.64 0.992s0.864 0.48 0.928 1.088c0.032 0.256-0.064 0.384-0.32 0.384h-2.592c-0.085-0.006-0.167-0.032-0.239-0.077s-0.133-0.106-0.177-0.179c-0.402-0.498-0.617-1.12-0.608-1.76-0.017-1.106 0.080-2.21 0.288-3.296 0.043-0.325 0.164-0.635 0.354-0.903s0.442-0.485 0.734-0.633c1.888-0.896 2.88-2.592 3.776-4.352 0.192-0.352 0.032-0.416-0.288-0.384-0.896 0.124-1.744 0.477-2.464 1.024-0.943 0.688-1.831 1.447-2.656 2.272-0.88 0.894-2.047 1.449-3.296 1.568-2.336 0.128-3.424-1.184-3.328-3.296 0.021-0.72 0.293-1.41 0.768-1.952 0.165-0.214 0.39-0.374 0.647-0.46s0.533-0.093 0.793-0.020c0.48 0.128 0.608 0.384 0.416 0.864-0.096 0.192-0.224 0.352-0.32 0.544-0.138 0.196-0.246 0.412-0.32 0.64-0.352 0.96 0.128 1.632 1.12 1.728 1.056 0.096 1.92-0.352 2.72-0.992 0.964-0.772 1.824-1.664 2.56-2.656 0.55-0.724 1.243-1.328 2.035-1.773s1.668-0.724 2.573-0.819c0.736-0.096 1.376-0.416 2.080-0.608 1.317-0.401 2.688-0.596 4.064-0.576 0.637 0.027 1.273-0.094 1.856-0.352 1.568-0.64 3.2-0.64 4.832-0.32 1.28 0.256 2.56 0.576 3.808 0.896 0.743 0.138 1.506 0.117 2.24-0.064 1.404-0.356 2.841-0.57 4.288-0.64 0.948-0.046 1.893 0.141 2.752 0.544 0.64 0.288 0.64 0.288 0.48 0.896z"
      />
</symbol>
<symbol id="alarm" viewBox="0 0 32 32">
<path
        fill="#F2F2F2"
        d="M28.992 15.756c0-2.318-0.603-4.548-1.755-6.524 1.609-0.811 2.68-2.474 2.68-4.355 0-2.689-2.188-4.878-4.877-4.878-2.216 0-4.090 1.486-4.682 3.514-1.393-0.498-2.854-0.75-4.359-0.75-1.53 0-3 0.267-4.364 0.755-0.598-2.018-2.467-3.494-4.676-3.494-2.689 0-4.877 2.188-4.877 4.877 0 1.878 1.068 3.539 2.674 4.351-1.111 1.914-1.748 4.135-1.748 6.503 0 4.909 2.737 9.191 6.765 11.4l-2.949 3.606 1.514 1.238 3.282-4.013c1.369 0.492 2.844 0.761 4.38 0.761s3.011-0.269 4.38-0.761l3.282 4.013 1.514-1.238-2.949-3.606c4.028-2.209 6.765-6.491 6.765-11.4zM25.041 1.956c1.611 0 2.921 1.311 2.921 2.922 0 1.218-0.749 2.284-1.845 2.717-1.085-1.341-2.43-2.459-3.944-3.277 0.262-1.344 1.448-2.361 2.868-2.361zM4.038 4.902c0-1.611 1.311-2.922 2.921-2.922 1.414 0 2.597 1.010 2.865 2.347-1.523 0.827-2.863 1.949-3.944 3.29-1.095-0.433-1.843-1.498-1.843-2.716zM17.045 26.742v-1.92h-1.956v1.932c-5.352-0.439-9.634-4.713-10.086-10.062h1.956v-1.956h-1.948c0.179-1.942 0.863-3.74 1.919-5.262l0.119-0.164c1.091-1.505 2.553-2.72 4.228-3.512l0.536-0.254c1.024-0.422 2.125-0.693 3.276-0.788v1.849h1.956v-1.838c1.275 0.119 2.505 0.455 3.669 1.006 1.675 0.792 3.137 2.007 4.228 3.512 1.17 1.614 1.869 3.481 2.048 5.45h-1.815v1.956h1.821c-0.448 5.304-4.662 9.551-9.951 10.050z"
      />
<path
        fill="#F2F2F2"
        d="M15.022 8.314v7.317l-2.639 4.262 1.663 1.030 2.931-4.735v-7.873z"
      />
</symbol>
<symbol id="boiling-water" viewBox="0 0 32 32">
<path
        fill="#F2F2F2"
        d="M31.558 5.144c-0.59-0.59-1.541-0.59-2.131 0l-2.758 2.758c-0.282 0.282-0.44 0.667-0.44 1.066v16.502h-20.054v-16.443c0-0.399-0.159-0.783-0.44-1.066l-3.161-3.161c-0.588-0.588-1.543-0.59-2.132 0-0.588 0.588-0.588 1.543 0 2.131l2.719 2.72v17.326c0 0.836 0.675 1.509 1.507 1.509h23.068c0.832 0 1.509-0.671 1.509-1.509v-17.385l2.316-2.318c0.59-0.588 0.59-1.541 0-2.131z"
      />
<path
        fill="#F2F2F2"
        d="M15.513 13.197c1.189 1.229 2.805 2.433 4.747 2.429 1.943 0.006 3.511-1.314 4.308-2.785-1.183 1.206-2.768 2.008-4.269 1.845-1.509-0.166-2.815-1.159-3.927-2.331-0.626-0.626-1.323-1.208-2.136-1.641-0.811-0.42-1.743-0.707-2.684-0.658-1.921 0.064-3.473 1.337-4.32 2.787 1.219-1.172 2.796-1.955 4.308-1.849 1.52 0.11 2.866 1.053 3.972 2.202z"
      />
<path
        fill="#F2F2F2"
        d="M15.806 5.322c0 0.845-0.685 1.529-1.529 1.529s-1.529-0.685-1.529-1.529c0-0.845 0.685-1.529 1.529-1.529s1.529 0.685 1.529 1.529z"
      />
<path
        fill="#F2F2F2"
        d="M18.973 7.157c0 0.348-0.282 0.63-0.63 0.63s-0.63-0.282-0.63-0.63c0-0.348 0.282-0.63 0.63-0.63s0.63 0.282 0.63 0.63z"
      />
<path
        fill="#F2F2F2"
        d="M21.398 4.142c0 0.347-0.281 0.628-0.628 0.628s-0.628-0.281-0.628-0.628c0-0.347 0.281-0.628 0.628-0.628s0.628 0.281 0.628 0.628z"
      />
<path
        fill="#F2F2F2"
        d="M19.292 20.525c0 0.82 0.664 1.478 1.478 1.478s1.478-0.66 1.478-1.478c0-0.817-0.664-1.478-1.478-1.478s-1.478 0.662-1.478 1.478zM21.648 20.525c0 0.486-0.395 0.879-0.877 0.879s-0.877-0.393-0.877-0.879c0-0.482 0.395-0.875 0.877-0.875s0.877 0.393 0.877 0.875z"
      />
<path
        fill="#F2F2F2"
        d="M9.498 17.81c0 1.229 1.002 2.236 2.233 2.236 1.229 0 2.233-1.006 2.233-2.236 0-1.227-1.002-2.233-2.233-2.233s-2.233 1.006-2.233 2.233zM13.36 17.81c0 0.902-0.732 1.631-1.628 1.631-0.9 0-1.631-0.732-1.631-1.631 0-0.896 0.732-1.626 1.631-1.626 0.896 0 1.628 0.73 1.628 1.626z"
      />
</symbol>
<symbol id="fork-plate-knife" viewBox="0 0 32 32">
<path
        fill="#F2F2F2"
        d="M30.020 27.763c-0.664 0-1.204-0.54-1.204-1.204v-21.417c0-0.313 0.252-0.905 1.204-0.905 1.511 0 1.98 5.365 1.98 7.319 0 3.031-0.67 5.815-0.776 6.235v8.767c0 0.664-0.54 1.204-1.204 1.204zM29.617 18.142v8.417c0 0.222 0.18 0.402 0.402 0.402s0.402-0.18 0.402-0.402v-8.417h-0.804zM29.617 17.34h0.889c0.19-0.827 0.691-3.247 0.691-5.784 0-3.347-0.787-6.23-1.21-6.517-0.247 0.005-0.356 0.074-0.371 0.124v12.177zM2.666 27.763c-0.3 0-0.588-0.118-0.792-0.323-0.187-0.189-0.288-0.435-0.286-0.692l0.129-13.112c-0.983-0.379-1.695-1.329-1.718-2.437-0-0.010-0-0.020 0-0.030l0.275-6.045c0.010-0.221 0.202-0.388 0.418-0.382 0.221 0.010 0.392 0.197 0.382 0.419l-0.256 5.626h0.699l0.129-5.653c0.005-0.221 0.194-0.398 0.41-0.392 0.221 0.005 0.397 0.189 0.392 0.41l-0.128 5.635h0.69l-0.128-5.635c-0.005-0.221 0.17-0.405 0.392-0.41 0.218-0.007 0.405 0.17 0.41 0.392l0.129 5.653h0.699l-0.256-5.626c-0.010-0.221 0.161-0.409 0.382-0.419 0.219-0.008 0.409 0.161 0.418 0.382l0.275 6.044c0 0.010 0.001 0.020 0 0.030-0.023 1.109-0.735 2.058-1.718 2.437l0.129 13.112c0.003 0.258-0.099 0.504-0.286 0.692-0.203 0.205-0.492 0.323-0.792 0.323zM2.518 13.812l-0.127 12.943c-0 0.054 0.029 0.095 0.054 0.12 0.107 0.109 0.337 0.108 0.444 0 0.025-0.025 0.054-0.067 0.054-0.12l-0.128-12.943h-0.297zM0.855 11.587c0.201 0.814 0.942 1.423 1.811 1.423s1.61-0.609 1.811-1.423h-1.056c0 0-0 0-0.001 0h-1.509c-0 0-0 0-0 0s-0 0-0 0h-1.056zM16.478 26.173c-5.882 0-10.668-4.786-10.668-10.668s4.786-10.668 10.668-10.668c5.883 0 10.668 4.786 10.668 10.668s-4.786 10.668-10.668 10.668zM16.478 5.638c-5.441 0-9.867 4.426-9.867 9.867s4.426 9.867 9.867 9.867 9.867-4.426 9.867-9.867-4.426-9.867-9.867-9.867zM16.478 23.271c-4.282 0-7.766-3.484-7.766-7.766s3.484-7.766 7.766-7.766 7.766 3.484 7.766 7.766-3.484 7.766-7.766 7.766zM16.478 8.54c-3.84 0-6.964 3.124-6.964 6.964s3.124 6.964 6.964 6.964 6.964-3.124 6.964-6.964-3.124-6.964-6.964-6.964z"
      />
</symbol>
<symbol id="leaf" viewBox="0 0 32 32">
<path
        fill="#F2F2F2"
        d="M26.057 17.785c0-5.189-1.698-16.751-1.77-17.241-0.028-0.19-0.14-0.358-0.306-0.456s-0.366-0.116-0.547-0.049c-0.177 0.066-4.392 1.647-8.677 4.595-2.535 1.744-4.559 3.604-6.017 5.529-1.856 2.451-2.797 5.016-2.797 7.622 0 4.874 3.486 8.949 8.095 9.864 0.224 1.421 0.533 2.735 0.921 3.912 0.088 0.268 0.338 0.438 0.605 0.438 0.066 0 0.133-0.010 0.2-0.032 0.334-0.11 0.516-0.47 0.406-0.805-0.332-1.010-0.604-2.131-0.811-3.342 0.212 0.013 0.426 0.021 0.642 0.021 5.545 0 10.057-4.511 10.057-10.057zM7.218 17.785c0-5.297 4.482-9.496 8.241-12.086 2.466-1.699 4.955-2.948 6.58-3.686-1.349 1.947-3.993 6.015-5.57 10.083-0.127 0.328 0.036 0.697 0.364 0.825 0.076 0.029 0.154 0.043 0.23 0.043 0.256 0 0.497-0.155 0.594-0.407 1.585-4.090 4.372-8.3 5.615-10.080 0.484 3.506 1.509 11.395 1.509 15.308 0 4.842-3.94 8.782-8.782 8.782s-8.782-3.939-8.782-8.782z"
      />
<path
        fill="#F2F2F2"
        d="M16.175 15.082c-0.346-0.066-0.68 0.161-0.746 0.507-0.132 0.689-0.203 1.344-0.212 1.945-0.005 0.352 0.276 0.642 0.628 0.647 0.003 0 0.007 0 0.010 0 0.347 0 0.632-0.279 0.637-0.628 0.008-0.528 0.072-1.109 0.19-1.726 0.066-0.346-0.161-0.68-0.507-0.746z"
      />
</symbol>
<symbol id="logo-mobile" viewBox="0 0 29 32">
<path
        fill="#fdc305"
        style="fill: var(--color1, #fdc305)"
        d="M5.112 17.448v-1.903c5.628-0.773 11.304-1.147 16.985-1.12 0 0.505 0 1.019-0.051 1.533 1.615-0.717 3.312-1.231 5.053-1.533-1.109-2.87-3.131-5.296-5.754-6.905s-5.702-2.311-8.763-1.999c-3.061 0.312-5.935 1.621-8.179 3.726s-3.735 4.889-4.243 7.923l4.952 0.278z"
      />
<path
        fill="#fdc305"
        style="fill: var(--color1, #fdc305)"
        d="M22.939 20.404c-0.977 1.078-1.171 1.011-1.171 2.905 0 0.766 0 4.126 0 7.731 1.931-1.275 3.515-3.008 4.613-5.045s1.674-4.313 1.677-6.627c-0.011-0.877-0.101-1.75-0.269-2.611-1.745 1.035-3.371 2.258-4.851 3.646z"
      />
<path
        fill="#fdc305"
        style="fill: var(--color1, #fdc305)"
        d="M5.356 21.659c0 0-3.192-1.213-4.371-1.541-0.322-0.102-0.652-0.18-0.985-0.236 0.091 2.43 0.813 4.795 2.095 6.862s3.079 3.765 5.215 4.927l-1.954-10.013z"
      />
<path
        fill="#f06351"
        style="fill: var(--color2, #f06351)"
        d="M22.139 14.417c0.034-4.65-0.36-9.292-1.179-13.869 0 0-0.118-1.086-0.749-0.202-0.496 1.051-0.836 2.169-1.011 3.318-3.586-0.231-7.185-0.135-10.754 0.286-0.665-2.265-1.836-3.318-2.4-3.107s-0.606 2.787-0.606 2.787l-0.278 11.874c5.626-0.761 11.299-1.124 16.977-1.086z"
      />
<path
        fill="#000"
        style="fill: var(--color3, #000)"
        d="M10.451 11.789c0-0.076 0.842 0.573 1.187 0.775s0.514 0.354 0.514 0.497c0 0.143-0.227 0.286-0.531 0.286s-0.766-0.101-0.842-0.227h1.036c-0.513-0.379-0.972-0.827-1.364-1.331z"
      />
<path
        fill="#000"
        style="fill: var(--color3, #000)"
        d="M16.749 11.882l-0.918 1.12c0 0.051-0.143 0.295 0.152 0.253 0.349-0.052 0.692-0.134 1.027-0.244 0.093 0 0.059-0.16-0.093-0.143s-0.581 0.042-0.842 0.093l0.707-1.061c0 0 0.059-0.109-0.034-0.017z"
      />
<path
        fill="#000"
        style="fill: var(--color3, #000)"
        d="M14.105 17.011c0.39-0.172 0.713-0.468 0.918-0.842 0.236-0.547 0-0.766-0.371-0.842-0.507-0.092-1.030 0.010-1.465 0.286-0.328 0.303-0.286 0.606-0.042 0.842 0.296 0.224 0.618 0.411 0.96 0.556z"
      />
<path
        fill="#f06351"
        style="fill: var(--color2, #f06351)"
        d="M13.768 18.063c-0.094 0.192-0.226 0.364-0.387 0.505-0.24 0.193-0.535 0.305-0.842 0.32-0.443 0.035-0.884-0.094-1.238-0.362-0.167-0.1-0.317-0.225-0.446-0.371-0.085-0.093-0.188-0.168-0.303-0.219 0 0 0.632 3.453 2.164 4s1.802-0.632 1.853-0.952c0.051-0.956-0.19-1.904-0.691-2.72-0.017-0.261-0.025-0.093-0.109-0.202z"
      />
<path
        fill="#000"
        style="fill: var(--color3, #000)"
        d="M12.387 19.023c-0.391-0.055-0.767-0.189-1.105-0.395s-0.629-0.478-0.857-0.801c-0.011-0.011-0.020-0.024-0.026-0.039s-0.009-0.030-0.009-0.046 0.003-0.031 0.009-0.046c0.006-0.014 0.015-0.028 0.026-0.039s0.024-0.020 0.039-0.026c0.014-0.006 0.030-0.009 0.046-0.009s0.031 0.003 0.046 0.009c0.014 0.006 0.028 0.015 0.039 0.026 0.425 0.585 1.064 0.978 1.777 1.095 0.279-0.021 0.55-0.108 0.788-0.255s0.439-0.348 0.584-0.587l0.118-0.16 0.084 0.177c0 0 0.312 0.64 0.842 0.674s0.884-0.345 1.356-1.078c0.011-0.011 0.024-0.020 0.039-0.026s0.030-0.009 0.046-0.009 0.031 0.003 0.046 0.009c0.014 0.006 0.028 0.015 0.039 0.026 0.027 0.017 0.047 0.045 0.055 0.076s0.003 0.064-0.012 0.093c-0.539 0.842-1.069 1.213-1.583 1.179-0.195-0.028-0.382-0.101-0.545-0.212s-0.299-0.257-0.398-0.428c-0.166 0.231-0.381 0.422-0.63 0.559s-0.526 0.216-0.81 0.232z"
      />
<path
        fill="#f06351"
        style="fill: var(--color2, #f06351)"
        d="M22.097 15.933c-1.512 1.367-2.938 2.827-4.269 4.371-1.323 1.538-2.818 2.919-4.455 4.118-0.185-0.446-1.364-1.272-1.364-1.272s-2.636-1.802-4.362-3.217c-0.931-0.785-1.812-1.629-2.636-2.526l-1.684-0.093c2.434 3.541 5.996 6.154 10.105 7.411 0.724-0.118 2.754-1.566 4.269-2.745 1.784-1.531 3.456-3.189 5.002-4.96 0.423-0.496 0.749-1.067 0.96-1.684-0.926 0.328-1.566 0.598-1.566 0.598z"
      />
</symbol>
<symbol id="menu" viewBox="0 0 32 32" fill="#f06351">
<path d="M2 6h28v6h-28zM2 14h28v6h-28zM2 22h28v6h-28z" />
</symbol>
</defs>
</svg>
